<svg xmlns="http://www.w3.org/2000/svg" xmlns:xlink="http://www.w3.org/1999/xlink" width="525" height="787" viewBox="0 0 525 787">
  <defs>
    <clipPath id="clip-Imagem-Draw">
      <rect width="525" height="787"/>
    </clipPath>
  </defs>
  <g id="Imagem-Draw" clip-path="url(#clip-Imagem-Draw)">
    <rect width="525" height="787" fill="#fff"/>
    <g id="Grupo_6" data-name="Grupo 6" transform="translate(-13 150.316)">
      <path id="Caminho_1" data-name="Caminho 1" d="M623.387,661.257l-8.457,2.795-14.806-31.289,12.482-4.125Z" transform="translate(-164.136 -171.935)" fill="#ffb8b8"/>
      <path id="Caminho_2" data-name="Caminho 2" d="M10.815,0H27.992V10.815H0A10.815,10.815,0,0,1,10.815,0Z" transform="translate(433.687 495.091) rotate(-18.29)" fill="#2f2e41"/>
      <path id="Caminho_3" data-name="Caminho 3" d="M550.4,671.3H541.5l-4.237-34.355H550.4Z" transform="translate(-146.943 -174.206)" fill="#ffb8b8"/>
      <path id="Caminho_4" data-name="Caminho 4" d="M530.262,680.725H547.44V691.54H519.447A10.815,10.815,0,0,1,530.262,680.725Z" transform="translate(-142.071 -186.181)" fill="#2f2e41"/>
      <path id="Caminho_5" data-name="Caminho 5" d="M731.669,607.883l-.454,2.01c-6.137,27.178-8.323,66.722-6.489,94.524l1.416,21.476a2.906,2.906,0,0,0,2.9,2.715h10.678a2.906,2.906,0,0,0,2.886-2.566l8.288-70.444a2.906,2.906,0,0,1,5.657-.536l21.479,63.658a2.906,2.906,0,0,0,2.584,2.025l16.311,1.052a2.906,2.906,0,0,0,2.96-3.768l-9.818-27c-7.586-24.227-11.664-61.039-12.109-86.422h0a2.906,2.906,0,0,0-3.181-2.842l-40.548,3.862A2.906,2.906,0,0,0,731.669,607.883Z" transform="translate(-336.441 -238.322)" fill="#2f2e41"/>
      <circle id="Elipse_1" data-name="Elipse 1" cx="17.843" cy="17.843" r="17.843" transform="translate(401.127 221.026)" fill="#a0616a"/>
      <path id="Caminho_6" data-name="Caminho 6" d="M745.6,576.087h0a105.265,105.265,0,0,1-10.64-.561,4.374,4.374,0,0,1-3.885-4.719l6.084-58.778c1.467-16.626,3.734-32.675,15.2-46.267a4.371,4.371,0,0,1,3.147-1.545l.431-.016c4.524-.189,6.608-.024,7.195.563l3.155,3.109c19.24,14.229,20.04,104.37,15.3,102.594-.917-.342-11.867,0-12.629.522C762.782,575.2,752.849,576.086,745.6,576.087Z" transform="translate(-338.346 -200.68)" fill="#0466c8"/>
      <path id="Caminho_7" data-name="Caminho 7" d="M654.441,566.566a7.305,7.305,0,0,1,10.832-2.856l21.115-15.1.512,13.481-20.129,12.277a7.345,7.345,0,0,1-12.33-7.8Z" transform="translate(-317.193 -223.785)" fill="#a0616a"/>
      <path id="Caminho_8" data-name="Caminho 8" d="M680.885,555.454l-7.152-12.589,65.143-46.971a13.18,13.18,0,1,1,13.77,22.395Z" transform="translate(-322.666 -208.688)" fill="#0466c8"/>
      <path id="Caminho_9" data-name="Caminho 9" d="M766.212,435.822a3.526,3.526,0,0,0,4.61.3A31.331,31.331,0,0,0,780.9,424.387c2.5-5.423,2.783-12.078-.236-17.233-2.552-4.357-7.057-7.169-11.548-9.478a20.538,20.538,0,0,0-5.575-2.149,7.945,7.945,0,0,0-5.777.932,4.989,4.989,0,0,0-2.253,5.151,18.777,18.777,0,0,0-8.015-5.38,10.364,10.364,0,0,0-6.121-.444c-2.85.808-4.93,3.34-6.068,6.075a12.15,12.15,0,0,0-.917,6.629,8.1,8.1,0,0,0,3.539,5.547c2.356,1.458,5.362,1.353,8.068.757s5.325-1.631,8.083-1.893,5.83.426,7.508,2.63c1.182,1.552,1.486,3.58,1.751,5.513l1.38,10.054a12.264,12.264,0,0,0,1.1,4.2A2.426,2.426,0,0,0,766.212,435.822Z" transform="translate(-339.225 -181.867)" fill="#2f2e41"/>
      <path id="Caminho_10" data-name="Caminho 10" d="M826.813,610.081a7.306,7.306,0,0,1-.8-11.174L815.081,575.36l13.343,1.994,8.335,22.055a7.345,7.345,0,0,1-9.946,10.671Z" transform="translate(-361.326 -231.103)" fill="#a0616a"/>
      <path id="Caminho_11" data-name="Caminho 11" d="M817.93,559.026l-12.589,7.152L758.37,501.035a13.18,13.18,0,1,1,22.395-13.77Z" transform="translate(-345.134 -205.061)" fill="#0466c8"/>
      <path id="Path_22" data-name="Path 22" d="M588.6,221.577h-2.776V145.521A44.021,44.021,0,0,0,541.8,101.5H380.66a44.021,44.021,0,0,0-44.021,44.021V562.779A44.021,44.021,0,0,0,380.66,606.8H541.8a44.021,44.021,0,0,0,44.02-44.02V275.716H588.6Z" transform="translate(-230.47 -101.5)" fill="#001845"/>
      <path id="Path_23" data-name="Path 23" d="M548.15,117.258H527.118a15.618,15.618,0,0,1-14.462,21.517H420.34a15.618,15.618,0,0,1-14.461-21.517H386.233a32.875,32.875,0,0,0-32.874,32.874V566.785a32.875,32.875,0,0,0,32.875,32.875H548.15a32.874,32.874,0,0,0,32.875-32.875h0V150.132a32.874,32.874,0,0,0-32.873-32.874Z" transform="translate(-235.042 -105.81)" fill="#fff"/>
      <path id="Caminho_12" data-name="Caminho 12" d="M481.329,399.064a76.282,76.282,0,1,1,76.282-76.282A76.282,76.282,0,0,1,481.329,399.064Zm0-151.111a74.829,74.829,0,1,0,74.829,74.829,74.829,74.829,0,0,0-74.829-74.829Z" transform="translate(-249.18 -141.158)" fill="#001845"/>
      <path id="Caminho_13" data-name="Caminho 13" d="M503.585,284.23c6.533-5.52,10.5-14.241,9.461-22.73s-7.486-16.294-15.847-18.1-17.892,3.188-20.431,11.355c-1.4-15.746-3.008-32.153-11.38-45.562-7.58-12.142-20.71-20.83-34.939-22.384s-29.211,4.316-38.086,15.547-11.047,27.559-4.832,40.453c4.579,9.5,13.014,16.568,21.852,22.319,28.2,18.348,63.176,24.547,96.458,19.649Z" transform="translate(-243.419 -124.766)" fill="#0353a4"/>
      <path id="Caminho_14" data-name="Caminho 14" d="M414,193.171a232.714,232.714,0,0,1,68.378,92.46c.652,1.6-1.943,2.294-2.588.713A230.124,230.124,0,0,0,412.1,195.069c-1.34-1.091.569-2.98,1.9-1.9Z" transform="translate(-250.984 -126.484)" fill="#fff"/>
      <circle id="Elipse_2" data-name="Elipse 2" cx="7.991" cy="7.991" r="7.991" transform="translate(159.018 316.752)" fill="#3f3d56"/>
      <path id="Caminho_15" data-name="Caminho 15" d="M562.23,552.124H460.521a5.812,5.812,0,0,1,0-11.624H562.23a5.812,5.812,0,0,1,0,11.624Z" transform="translate(-262.762 -221.568)" fill="#ccc"/>
      <path id="Caminho_16" data-name="Caminho 16" d="M530.5,552.167H459.916a5.882,5.882,0,0,1,0-11.764H530.5a5.882,5.882,0,0,1,0,11.764Z" transform="translate(-262.578 -221.542)" fill="#0353a4"/>
      <circle id="Elipse_3" data-name="Elipse 3" cx="7.991" cy="7.991" r="7.991" transform="translate(159.018 351.624)" fill="#3f3d56"/>
      <path id="Caminho_17" data-name="Caminho 17" d="M562.23,600.124H460.521a5.812,5.812,0,0,1,0-11.624H562.23a5.812,5.812,0,0,1,0,11.624Z" transform="translate(-262.762 -234.697)" fill="#ccc"/>
      <circle id="Elipse_4" data-name="Elipse 4" cx="7.991" cy="7.991" r="7.991" transform="translate(159.018 386.496)" fill="#3f3d56"/>
      <path id="Caminho_18" data-name="Caminho 18" d="M562.23,648.124H460.521a5.812,5.812,0,0,1,0-11.624H562.23a5.812,5.812,0,0,1,0,11.624Z" transform="translate(-262.762 -247.825)" fill="#ccc"/>
      <path id="Caminho_19" data-name="Caminho 19" d="M507.253,600.167H459.916a5.882,5.882,0,0,1,0-11.764h47.337a5.882,5.882,0,1,1,0,11.764Z" transform="translate(-262.578 -234.67)" fill="#0353a4"/>
      <path id="Caminho_20" data-name="Caminho 20" d="M549.389,648.167H459.916a5.882,5.882,0,0,1,0-11.764h89.474a5.882,5.882,0,1,1,0,11.764Z" transform="translate(-262.578 -247.798)" fill="#0353a4"/>
      <path id="Caminho_21" data-name="Caminho 21" d="M561.881,322.834H551.9V293.328a3.273,3.273,0,0,1,3.269-3.269h3.447a3.273,3.273,0,0,1,3.269,3.269Z" transform="translate(-289.343 -153.072)" fill="#3f3d56"/>
      <path id="Caminho_22" data-name="Caminho 22" d="M537.91,372.764H442.464l-.343-53.794a6.206,6.206,0,0,1,1.866-4.463l23.977-23.354a6.149,6.149,0,0,1,4.252-1.751l40.13-.367a6.215,6.215,0,0,1,4.784,2.2l0,0,19.06,23.375a7.648,7.648,0,0,1,1.716,4.82Z" transform="translate(-259.319 -152.791)" fill="#3f3d56"/>
      <path id="Caminho_23" data-name="Caminho 23" d="M554.662,373.975H503.37V325.764a6.18,6.18,0,0,1,1.477-4.007l22.286-26.128h0a6.163,6.163,0,0,1,4.7-2.168h.023a6.165,6.165,0,0,1,4.705,2.2l16.656,19.829a6.183,6.183,0,0,1,1.447,3.972Z" transform="translate(-276.071 -154.002)" fill="#0466c8"/>
      <path id="Caminho_24" data-name="Caminho 24" d="M540.546,375.088h-7.42a1.818,1.818,0,0,1-1.816-1.816v-6.222a1.818,1.818,0,0,1,1.816-1.816h7.421a1.818,1.818,0,0,1,1.816,1.816v6.222A1.818,1.818,0,0,1,540.546,375.088Z" transform="translate(-283.713 -173.632)" fill="#fff"/>
      <path id="Caminho_25" data-name="Caminho 25" d="M540.546,353.2h-7.42a1.818,1.818,0,0,1-1.816-1.816V345.3a1.818,1.818,0,0,1,1.816-1.816h7.421a1.818,1.818,0,0,1,1.816,1.816v6.077A1.818,1.818,0,0,1,540.546,353.2Z" transform="translate(-283.713 -167.684)" fill="#fff"/>
      <path id="Caminho_26" data-name="Caminho 26" d="M477.374,371.754h-7.421a1.818,1.818,0,0,1-1.816-1.816v-6.222a1.818,1.818,0,0,1,1.816-1.816h7.421a1.818,1.818,0,0,1,1.816,1.816v6.222a1.818,1.818,0,0,1-1.816,1.816Z" transform="translate(-266.435 -172.721)" fill="#fff"/>
      <path id="Caminho_27" data-name="Caminho 27" d="M477.374,349.863h-7.421a1.818,1.818,0,0,1-1.816-1.816v-6.077a1.818,1.818,0,0,1,1.816-1.816h7.421a1.818,1.818,0,0,1,1.816,1.816v6.077a1.818,1.818,0,0,1-1.816,1.816Z" transform="translate(-266.435 -166.773)" fill="#fff"/>
      <path id="Caminho_28" data-name="Caminho 28" d="M550.248,404.605H420.422a.727.727,0,0,1,0-1.453H550.248a.727.727,0,0,1,0,1.453Z" transform="translate(-253.186 -184.003)" fill="#001845"/>
      <path id="Caminho_29" data-name="Caminho 29" d="M784.773,797.953H191.227a.726.726,0,1,1,0-1.453H784.773a.726.726,0,1,1,0,1.453Z" transform="translate(-190.5 -291.585)" fill="#001845"/>
    </g>
  </g>
</svg>
